<svg width="383" height="41" viewBox="0 0 383 41" fill="none" xmlns="http://www.w3.org/2000/svg">
<path d="M15.0265 33.3825C14.6647 33.1678 14.3951 32.865 14.2562 32.5172C14.1173 32.1694 14.1163 31.7945 14.2532 31.4462L14.6956 29.9469C14.7745 29.6834 14.9203 29.4364 15.1233 29.2219C15.3263 29.0075 15.5821 28.8304 15.874 28.7022L17.326 28.077C18.2218 27.6956 18.937 27.0807 19.3589 26.3294C19.7808 25.5781 19.8853 24.7331 19.656 23.9278L19.6357 23.8531C19.3669 22.9512 18.6971 22.1639 17.7572 21.6452C16.8173 21.1265 15.675 20.9136 14.5537 21.0482L12.9295 21.2391C12.5993 21.2779 12.2628 21.259 11.9421 21.1837C11.6214 21.1084 11.3238 20.9783 11.0689 20.802L9.63381 19.8034C9.27762 19.5851 9.01313 19.2815 8.877 18.9345C8.74087 18.5876 8.73984 18.2146 8.87404 17.8671C9.17959 17.0974 9.17084 16.267 8.84911 15.5017C8.52738 14.7364 7.91017 14.0777 7.09083 13.6253C6.27149 13.1728 5.29459 12.9513 4.30787 12.9941C3.32115 13.0369 2.37829 13.3418 1.62189 13.8626C0.865489 14.3834 0.336687 15.0918 0.115465 15.8807C-0.105757 16.6696 -0.00736729 17.496 0.395754 18.235C0.798875 18.974 1.4848 19.5854 2.34979 19.9767C3.21478 20.368 4.21178 20.5178 5.19 20.4037C5.34871 20.3843 5.50404 20.3567 5.65937 20.3262L6.08146 20.2598C6.43203 20.2031 6.79375 20.2122 7.13941 20.2864C7.48507 20.3607 7.80568 20.4982 8.07712 20.6886L10.0289 22.0717C10.3272 22.2857 10.555 22.5577 10.6913 22.8627C10.8276 23.1677 10.868 23.4959 10.8089 23.8171L10.7616 24.0605L10.7211 24.2735V24.2929C10.6577 24.7369 10.692 25.1866 10.8224 25.6207C10.8224 25.6456 10.8224 25.6705 10.8461 25.6926V25.7202C11.0332 26.3089 11.3951 26.8506 11.8996 27.297C11.9604 27.3495 12.0212 27.3993 12.0853 27.4491L12.2981 27.6234C12.5789 27.8566 12.7829 28.1444 12.891 28.4598C12.9991 28.7753 13.0077 29.108 12.916 29.4269L12.3217 31.4766C12.24 31.7615 12.0797 32.0273 11.8532 32.2536C11.6267 32.48 11.3399 32.6608 11.0149 32.7823L10.6502 32.9206C10.5013 32.9682 10.3559 33.0226 10.2146 33.0838C9.55036 33.371 8.984 33.7893 8.56675 34.3009C7.87716 35.1108 7.60858 36.112 7.82009 37.0841C8.0316 38.0563 8.70588 38.9198 9.69459 39.4847C10.6833 40.0496 11.9055 40.2696 13.0922 40.0963C14.2789 39.923 15.333 39.3707 16.0226 38.5608C16.4307 38.1025 16.7046 37.5734 16.8229 37.0145C16.8539 36.8884 16.8753 36.761 16.8871 36.6327L16.9343 36.3063C16.9073 35.7325 16.7216 35.1711 16.3911 34.6646C16.0606 34.1581 15.594 33.7197 15.0265 33.3825Z" fill="#EDEDED"/>
<path d="M49.7533 15.5712C49.5139 14.9707 49.0921 14.4298 48.5276 13.9994C47.9631 13.5689 47.2744 13.263 46.526 13.1104C45.7777 12.9578 44.9942 12.9634 44.2493 13.1267C43.5043 13.2901 42.8222 13.6058 42.267 14.0443C42.1486 14.1316 42.0359 14.2239 41.9293 14.3209L41.6558 14.5643C41.4137 14.7791 41.1154 14.9462 40.7832 15.053C40.451 15.1598 40.0936 15.2037 39.7378 15.1812L37.1715 15.0097C36.7725 14.9826 36.3884 14.873 36.0553 14.6911C35.7222 14.5092 35.4509 14.2609 35.267 13.9696L35.1319 13.7511C35.0914 13.6847 35.0543 13.6211 35.0104 13.5602V13.5409C34.7438 13.15 34.3925 12.8023 33.9737 12.5146L33.9062 12.4704L33.8758 12.4482C33.3012 12.0643 32.6207 11.8012 31.8936 11.682H31.8666L31.6066 11.646L31.3061 11.6267C30.9114 11.5738 30.5396 11.4397 30.2254 11.237C29.9112 11.0343 29.6649 10.7696 29.5096 10.4677L28.5169 8.53135C28.3801 8.26087 28.32 7.9685 28.341 7.67623C28.3621 7.38397 28.4638 7.09942 28.6384 6.84399L28.8377 6.56738C28.9232 6.45673 29.0009 6.34332 29.0707 6.22714C29.3764 5.71864 29.5347 5.15918 29.5333 4.59234C29.501 3.62208 29.0078 2.70043 28.1586 2.02351C27.3094 1.34659 26.1713 0.967834 24.9865 0.967834C23.8016 0.967834 22.6635 1.34659 21.8143 2.02351C20.9652 2.70043 20.472 3.62208 20.4397 4.59234C20.4382 5.15918 20.5965 5.71864 20.9023 6.22714C20.9743 6.34332 21.052 6.45673 21.1353 6.56738L21.3345 6.84399C21.5092 7.09942 21.6109 7.38397 21.6319 7.67623C21.653 7.9685 21.5929 8.26087 21.4561 8.53135L20.4633 10.4677C20.3092 10.7682 20.065 11.0319 19.7534 11.2345C19.4417 11.4372 19.0726 11.572 18.6804 11.6267L18.3866 11.6654L18.1232 11.7014H18.0996C17.5627 11.788 17.0499 11.9549 16.5868 12.1937L16.5193 12.2297C16.5057 12.2345 16.4932 12.241 16.4821 12.2491C15.8558 12.5781 15.3394 13.0296 14.9795 13.563V13.5824C14.9389 13.6432 14.8984 13.7096 14.8613 13.7732C13.0176 17.0152 17.0528 18.8132 17.5627 18.9238C18.1855 19.078 18.8402 19.1261 19.4865 19.0652C20.1329 19.0043 20.7572 18.8357 21.321 18.5697L21.4054 18.5255C22.3676 18.0364 23.0715 17.2702 23.379 16.3775C23.6864 15.4848 23.5751 14.5302 23.0668 13.7013L22.3307 12.4842C22.1835 12.2389 22.1013 11.9708 22.0897 11.6976C22.0781 11.4244 22.1372 11.1523 22.2631 10.8992L22.9655 9.47184C23.1076 9.12684 23.3782 8.82705 23.7392 8.61468C24.1003 8.40232 24.5336 8.28809 24.978 8.28809C25.4225 8.28809 25.8558 8.40232 26.2168 8.61468C26.5779 8.82705 26.8485 9.12684 26.9906 9.47184L27.7064 10.8992C27.8329 11.1521 27.8926 11.4241 27.8815 11.6973C27.8705 11.9705 27.7889 12.2387 27.6423 12.4842L26.9163 13.6902C26.4639 14.4322 26.3278 15.2769 26.5298 16.0896C26.7317 16.9023 27.2601 17.6362 28.0306 18.1742L28.1015 18.2267C28.6916 18.6343 29.3989 18.9116 30.1565 19.0327C30.914 19.1537 31.6967 19.1143 32.4305 18.9183C33.1034 18.7424 33.7157 18.4381 34.2168 18.0303L35.3953 17.0926C35.6328 16.8992 35.9182 16.7498 36.2321 16.6544C36.5461 16.5589 36.8814 16.5197 37.2154 16.5394L39.0929 16.6556C39.5371 16.6603 39.9685 16.7782 40.3273 16.9928C40.6861 17.2074 40.9545 17.5081 41.0953 17.8533C41.3823 18.578 42.1083 19.9694 44.7658 20.3871C45.5297 20.4756 46.3086 20.4035 47.0292 20.1775C47.7497 19.9514 48.3882 19.579 48.8847 19.0951C49.3811 18.6113 49.7191 18.032 49.8669 17.4116C50.0147 16.7913 49.9675 16.1504 49.7296 15.5491L49.7533 15.5712Z" fill="#EC1D35"/>
<path d="M33.3415 21.1921C32.7256 21.366 32.1602 21.6422 31.6809 22.0035C31.2015 22.3648 30.8184 22.8034 30.5557 23.2917C30.5557 23.3165 30.5287 23.3414 30.5185 23.3663C30.0954 24.2259 30.0781 25.1837 30.4702 26.0531C30.8622 26.9224 31.6355 27.6411 32.6391 28.0688L34.0945 28.694C34.3891 28.8219 34.6472 28.9995 34.8521 29.2149C35.057 29.4304 35.2038 29.679 35.2831 29.9443L35.7289 31.4435C35.8651 31.7913 35.8639 32.1655 35.7253 32.5127C35.5867 32.8599 35.3178 33.1624 34.957 33.377C34.5961 33.5917 34.1618 33.7075 33.7159 33.708C33.2699 33.7085 32.8352 33.5937 32.4737 33.3798L30.8697 32.5721C30.5853 32.4299 30.3408 32.2401 30.1523 32.0151C29.9637 31.7901 29.8354 31.535 29.7756 31.2665L29.4987 29.9415C29.3343 29.1236 28.8408 28.3743 28.0969 27.8124C27.3529 27.2506 26.4011 26.9086 25.3926 26.8406H25.2947C24.1647 26.7736 23.0449 27.0547 22.1548 27.6289C21.2647 28.203 20.6684 29.0287 20.4828 29.9443C19.8412 33.0977 23.3024 34.1239 24.643 34.265H24.7679C25.5087 34.2997 26.2485 34.1848 26.9223 33.9303H26.9459L27.1823 33.8335L27.4491 33.7228C27.8064 33.5753 28.2036 33.5046 28.6034 33.5172C29.0033 33.5297 29.3926 33.6253 29.7351 33.7948L31.9334 34.9012C32.2387 35.053 32.4976 35.2601 32.6902 35.5066C32.8828 35.753 33.0039 36.0323 33.0443 36.323L33.0916 36.6494C33.1022 36.7802 33.1214 36.9104 33.149 37.0395C33.2811 37.6629 33.6048 38.2486 34.0897 38.7412C34.5745 39.2337 35.2046 39.6171 35.9203 39.855C36.6361 40.0929 37.4141 40.1776 38.1808 40.101C38.9476 40.0245 39.6779 39.7892 40.303 39.4174C40.9281 39.0456 41.4272 38.5495 41.7535 37.976C42.0797 37.4024 42.2222 36.7702 42.1676 36.139C42.113 35.5078 41.8631 34.8984 41.4414 34.3682C41.0197 33.8381 40.4401 33.4046 39.7573 33.1088C39.6155 33.0479 39.4703 32.9953 39.3217 32.9456L38.957 32.8072C38.6324 32.6861 38.3458 32.5057 38.1194 32.2798C37.8929 32.054 37.7324 31.7888 37.6502 31.5044L37.0559 29.4519C36.9643 29.133 36.9729 28.8003 37.0809 28.4848C37.189 28.1694 37.393 27.8816 37.6739 27.6484L37.8866 27.4741C37.9508 27.4243 38.0115 27.3745 38.0723 27.322V27.3054C38.4442 26.9779 38.7395 26.5972 38.9435 26.1823L38.9739 26.1187V26.0882C39.2421 25.5218 39.3372 24.9102 39.2508 24.3068V24.2847C38.6497 20.6804 34.314 20.8962 33.3415 21.1921Z" fill="#402FFF"/>
<path d="M71.4624 38.2786V35.3382H67.0727C66.0724 35.32 65.095 35.0893 64.2362 34.6688C63.2907 34.2124 61.6158 32.6993 61.0992 32.099C60.5902 31.4494 60.3357 30.6879 60.3698 29.9165V19.3166C60.3311 18.5352 60.5857 17.7629 61.0992 17.1037C61.6158 16.5504 63.2907 15.0263 64.2362 14.5671C65.0959 14.1487 66.0729 13.919 67.0727 13.9005H71.4624V11.0458H76.2338V13.8949H80.5189C81.5178 13.9179 82.4935 14.1472 83.3554 14.5616C84.3008 15.0207 85.9352 16.5338 86.4957 17.0981C87.0077 17.7579 87.2621 18.5298 87.2251 19.3111V29.911C87.2577 30.6822 87.0033 31.4434 86.4957 32.0935C85.9352 32.6937 84.3008 34.2068 83.3554 34.6632C82.4944 35.0797 81.5183 35.31 80.5189 35.3327H76.2338V38.2731L71.4624 38.2786ZM67.1773 31.2194H71.4624V18.0137H67.2212C66.6164 18.3961 66.0809 18.8468 65.6308 19.3526V29.9165C66.0681 30.4088 66.5889 30.8475 67.1773 31.2194ZM81.981 19.3249C81.568 18.8162 81.0436 18.3745 80.4345 18.022H76.2338V31.2277H80.3906C80.974 30.8394 81.507 30.4028 81.981 29.9248V19.3249Z" fill="#EDEDED"/>
<path d="M109.953 20.2321C109.483 19.3234 108.688 18.5521 107.674 18.0192H100.036C99.3893 18.4159 98.8201 18.8906 98.3474 19.4272V29.922C98.7807 30.4566 99.3584 30.9024 100.036 31.2248H107.758C108.684 30.6725 109.436 29.9483 109.953 29.1115L114.853 30.099C114.498 30.9023 114.005 31.6604 113.391 32.3507C112.358 33.5484 110.352 35.3436 107.718 35.3436H99.8197C98.8203 35.3207 97.8443 35.0903 96.9832 34.6742C96.0816 34.2178 94.4472 32.8098 93.8462 32.1404C93.361 31.4822 93.1074 30.7269 93.1134 29.9579V19.2806C93.0748 18.5083 93.3309 17.7455 93.8462 17.0981C94.3594 16.5448 96.0377 15.0566 97.0271 14.5615C97.879 14.1587 98.8369 13.93 99.8197 13.8948H107.721C110.342 13.8948 112.32 15.6901 113.35 16.8519C113.96 17.5414 114.452 18.2962 114.812 19.0952L109.953 20.2321Z" fill="#EDEDED"/>
<path d="M136.161 35.1639V18.1547H125.298V35.1639H120.053V15.2226C120.055 14.9113 120.207 14.6131 120.476 14.3929C120.745 14.1728 121.109 14.0485 121.489 14.047H139.97C140.35 14.0485 140.714 14.1728 140.982 14.3929C141.251 14.6131 141.403 14.9113 141.405 15.2226V35.1777L136.161 35.1639Z" fill="#EDEDED"/>
<path d="M157.391 25.6815V23.1597C156.495 23.1597 155.79 22.9076 155.276 22.4032C154.762 21.8895 154.505 21.1937 154.505 20.3158V18.2844C154.505 17.4064 154.762 16.7153 155.276 16.2109C155.799 15.7066 156.504 15.4544 157.391 15.4544V12.9327H158.68V15.4544C159.577 15.4544 160.282 15.7066 160.796 16.2109C161.31 16.7153 161.566 17.4064 161.566 18.2844V20.3158C161.566 21.1937 161.31 21.8895 160.796 22.4032C160.282 22.9076 159.577 23.1597 158.68 23.1597V25.6815H157.391ZM157.433 21.9689V16.6452C156.948 16.6452 156.565 16.79 156.285 17.0795C156.005 17.3597 155.864 17.7613 155.864 18.2844V20.3158C155.864 20.8295 156.005 21.2357 156.285 21.5346C156.565 21.8241 156.948 21.9689 157.433 21.9689ZM158.638 21.9689C159.133 21.9689 159.516 21.8241 159.787 21.5346C160.067 21.2357 160.207 20.8295 160.207 20.3158V18.2844C160.207 17.7613 160.067 17.3597 159.787 17.0795C159.516 16.79 159.133 16.6452 158.638 16.6452V21.9689ZM166.436 23.2998C165.81 23.2998 165.259 23.1784 164.783 22.9356C164.316 22.6834 163.957 22.3332 163.704 21.8848C163.452 21.4365 163.326 20.9135 163.326 20.3158V18.2984C163.326 17.6913 163.452 17.1683 163.704 16.7293C163.957 16.281 164.316 15.9354 164.783 15.6926C165.259 15.4404 165.81 15.3143 166.436 15.3143C167.071 15.3143 167.622 15.4404 168.089 15.6926C168.556 15.9354 168.916 16.281 169.168 16.7293C169.42 17.1683 169.546 17.6913 169.546 18.2984V19.6713H164.783V20.3158C164.783 20.8855 164.923 21.3198 165.203 21.6187C165.493 21.9175 165.909 22.067 166.45 22.067C166.889 22.067 167.244 21.9923 167.515 21.8428C167.786 21.684 167.954 21.4552 168.019 21.1563H169.518C169.406 21.8101 169.07 22.3332 168.51 22.7254C167.949 23.1084 167.258 23.2998 166.436 23.2998ZM168.089 18.7607V18.2844C168.089 17.724 167.949 17.2897 167.669 16.9815C167.389 16.6732 166.978 16.5191 166.436 16.5191C165.904 16.5191 165.493 16.6732 165.203 16.9815C164.923 17.2897 164.783 17.7286 164.783 18.2984V18.6486L168.201 18.6346L168.089 18.7607ZM171.026 25.1211V21.8708H171.586C171.745 21.7121 171.909 21.4132 172.077 20.9742C172.254 20.5259 172.348 19.9608 172.357 19.279L172.441 15.4544H177.667V21.8708H178.605V25.1211H177.232V23.1597H172.399V25.1211H171.026ZM173.155 21.8708H176.196V16.7853H173.856L173.8 19.2931C173.791 19.9749 173.711 20.5399 173.562 20.9882C173.422 21.4272 173.286 21.7214 173.155 21.8708ZM183.237 23.2998C182.611 23.2998 182.06 23.1784 181.584 22.9356C181.117 22.6834 180.757 22.3332 180.505 21.8848C180.253 21.4365 180.127 20.9135 180.127 20.3158V18.2984C180.127 17.6913 180.253 17.1683 180.505 16.7293C180.757 16.281 181.117 15.9354 181.584 15.6926C182.06 15.4404 182.611 15.3143 183.237 15.3143C183.872 15.3143 184.423 15.4404 184.89 15.6926C185.357 15.9354 185.717 16.281 185.969 16.7293C186.221 17.1683 186.347 17.6913 186.347 18.2984V19.6713H181.584V20.3158C181.584 20.8855 181.724 21.3198 182.004 21.6187C182.294 21.9175 182.709 22.067 183.251 22.067C183.69 22.067 184.045 21.9923 184.316 21.8428C184.587 21.684 184.755 21.4552 184.82 21.1563H186.319C186.207 21.8101 185.871 22.3332 185.31 22.7254C184.75 23.1084 184.059 23.2998 183.237 23.2998ZM184.89 18.7607V18.2844C184.89 17.724 184.75 17.2897 184.47 16.9815C184.19 16.6732 183.779 16.5191 183.237 16.5191C182.705 16.5191 182.294 16.6732 182.004 16.9815C181.724 17.2897 181.584 17.7286 181.584 18.2984V18.6486L185.002 18.6346L184.89 18.7607ZM188.611 25.6815V15.4544H190.11V16.9254H190.432L190.11 17.2757C190.11 16.6686 190.297 16.1922 190.671 15.8467C191.054 15.4918 191.563 15.3143 192.198 15.3143C192.973 15.3143 193.589 15.5758 194.047 16.0988C194.514 16.6125 194.747 17.3177 194.747 18.2143V20.3858C194.747 20.9836 194.64 21.5019 194.425 21.9409C194.22 22.3705 193.926 22.7067 193.543 22.9496C193.169 23.1831 192.721 23.2998 192.198 23.2998C191.572 23.2998 191.068 23.127 190.685 22.7815C190.302 22.4266 190.11 21.9456 190.11 21.3385L190.432 21.6887H190.082L190.124 23.482V25.6815H188.611ZM191.679 21.9829C192.174 21.9829 192.557 21.8428 192.828 21.5626C193.108 21.2731 193.248 20.8575 193.248 20.3158V18.2984C193.248 17.7567 193.108 17.3457 192.828 17.0655C192.557 16.776 192.174 16.6312 191.679 16.6312C191.203 16.6312 190.825 16.7807 190.545 17.0795C190.264 17.3691 190.124 17.7753 190.124 18.2984V20.3158C190.124 20.8388 190.264 21.2497 190.545 21.5486C190.825 21.8381 191.203 21.9829 191.679 21.9829ZM199.267 23.2998C198.464 23.2998 197.829 23.0944 197.362 22.6834C196.904 22.2631 196.675 21.6934 196.675 20.9742C196.675 20.2457 196.918 19.676 197.404 19.265C197.899 18.8447 198.576 18.6346 199.435 18.6346H201.579V17.9201C201.579 17.4998 201.448 17.1729 201.186 16.9394C200.925 16.7059 200.556 16.5892 200.08 16.5892C199.659 16.5892 199.309 16.6826 199.029 16.8694C198.749 17.0468 198.585 17.285 198.539 17.5839H197.054C197.138 16.8927 197.455 16.3417 198.006 15.9307C198.567 15.5198 199.272 15.3143 200.122 15.3143C201.037 15.3143 201.761 15.5478 202.293 16.0148C202.826 16.4724 203.092 17.0982 203.092 17.8921V23.1597H201.621V21.7448H201.369L201.621 21.4646C201.621 22.0249 201.406 22.4733 200.976 22.8095C200.547 23.1364 199.977 23.2998 199.267 23.2998ZM199.715 22.137C200.257 22.137 200.701 22.0016 201.046 21.7307C201.401 21.4505 201.579 21.0956 201.579 20.666V19.6573H199.463C199.071 19.6573 198.758 19.7647 198.525 19.9795C198.3 20.1943 198.188 20.4885 198.188 20.8621C198.188 21.2544 198.324 21.5673 198.595 21.8008C198.865 22.0249 199.239 22.137 199.715 22.137ZM210.834 25.1211V23.1597H205.44V15.4544H206.953V21.7868H209.643V15.4544H211.156V21.7868H212.207V25.1211H210.834ZM213.84 23.1597V15.4544H215.227V19.4472C215.227 19.7087 215.218 19.9982 215.199 20.3158C215.18 20.624 215.157 20.9275 215.129 21.2264C215.101 21.5159 215.073 21.7681 215.045 21.9829L217.945 15.4544H219.836V23.1597H218.449V19.167C218.449 18.9055 218.459 18.6253 218.477 18.3264C218.496 18.0182 218.519 17.7193 218.547 17.4298C218.576 17.1402 218.604 16.9021 218.632 16.7153L215.732 23.1597H213.84ZM221.834 23.1597L223.726 20.2737C223.165 20.115 222.726 19.8348 222.409 19.4332C222.1 19.0315 221.946 18.5412 221.946 17.9621C221.946 17.1776 222.208 16.5658 222.731 16.1269C223.254 15.6786 223.968 15.4544 224.874 15.4544H228.237V23.1597H226.738V20.4138H225.267L223.571 23.1597H221.834ZM224.916 19.153H226.738V16.7433H224.916C224.468 16.7433 224.113 16.8507 223.852 17.0655C223.6 17.271 223.473 17.5652 223.473 17.9481C223.473 18.3311 223.6 18.6299 223.852 18.8447C224.113 19.0502 224.468 19.153 224.916 19.153ZM242.081 23.2998C241.446 23.2998 240.886 23.1831 240.4 22.9496C239.924 22.7067 239.555 22.3612 239.293 21.9129C239.041 21.4552 238.915 20.9228 238.915 20.3158V18.2984C238.915 17.6819 239.041 17.1496 239.293 16.7013C239.555 16.253 239.924 15.912 240.4 15.6786C240.886 15.4357 241.446 15.3143 242.081 15.3143C243.006 15.3143 243.749 15.5571 244.309 16.0428C244.869 16.5285 245.163 17.1916 245.192 18.0322H243.678C243.65 17.5932 243.496 17.2523 243.216 17.0095C242.936 16.7666 242.558 16.6452 242.081 16.6452C241.568 16.6452 241.161 16.79 240.863 17.0795C240.564 17.3597 240.414 17.7613 240.414 18.2844V20.3158C240.414 20.8388 240.564 21.2451 240.863 21.5346C241.161 21.8241 241.568 21.9689 242.081 21.9689C242.558 21.9689 242.936 21.8475 243.216 21.6047C243.496 21.3618 243.65 21.0209 243.678 20.5819H245.192C245.163 21.4225 244.869 22.0857 244.309 22.5713C243.749 23.057 243.006 23.2998 242.081 23.2998ZM247.442 23.1597V15.4544H253.438V23.1597H251.925V16.8414H248.955V23.1597H247.442ZM258.84 23.2858C258.205 23.2858 257.654 23.1644 257.187 22.9216C256.72 22.6787 256.36 22.3332 256.108 21.8848C255.856 21.4365 255.73 20.9088 255.73 20.3018V18.3124C255.73 17.6959 255.856 17.1683 256.108 16.7293C256.36 16.281 256.72 15.9354 257.187 15.6926C257.654 15.4497 258.205 15.3283 258.84 15.3283C259.475 15.3283 260.026 15.4497 260.493 15.6926C260.96 15.9354 261.32 16.281 261.572 16.7293C261.824 17.1683 261.95 17.6959 261.95 18.3124V20.3018C261.95 20.9088 261.824 21.4365 261.572 21.8848C261.32 22.3332 260.96 22.6787 260.493 22.9216C260.026 23.1644 259.475 23.2858 258.84 23.2858ZM258.84 21.9549C259.354 21.9549 259.751 21.8148 260.031 21.5346C260.311 21.2451 260.451 20.8341 260.451 20.3018V18.3124C260.451 17.7707 260.311 17.3597 260.031 17.0795C259.751 16.7993 259.354 16.6592 258.84 16.6592C258.336 16.6592 257.939 16.7993 257.649 17.0795C257.369 17.3597 257.229 17.7707 257.229 18.3124V20.3018C257.229 20.8341 257.369 21.2451 257.649 21.5346C257.939 21.8148 258.336 21.9549 258.84 21.9549ZM264.214 25.6815V15.4544H265.713V16.9254H266.036L265.713 17.2757C265.713 16.6686 265.9 16.1922 266.274 15.8467C266.657 15.4918 267.166 15.3143 267.801 15.3143C268.576 15.3143 269.192 15.5758 269.65 16.0988C270.117 16.6125 270.351 17.3177 270.351 18.2143V20.3858C270.351 20.9836 270.243 21.5019 270.028 21.9409C269.823 22.3705 269.529 22.7067 269.146 22.9496C268.772 23.1831 268.324 23.2998 267.801 23.2998C267.175 23.2998 266.671 23.127 266.288 22.7815C265.905 22.4266 265.713 21.9456 265.713 21.3385L266.036 21.6887H265.685L265.727 23.482V25.6815H264.214ZM267.282 21.9829C267.777 21.9829 268.16 21.8428 268.431 21.5626C268.711 21.2731 268.851 20.8575 268.851 20.3158V18.2984C268.851 17.7567 268.711 17.3457 268.431 17.0655C268.16 16.776 267.777 16.6312 267.282 16.6312C266.806 16.6312 266.428 16.7807 266.148 17.0795C265.867 17.3691 265.727 17.7753 265.727 18.2984V20.3158C265.727 20.8388 265.867 21.2497 266.148 21.5486C266.428 21.8381 266.806 21.9829 267.282 21.9829ZM274.884 23.1597V16.8133H272.166V15.4544H279.115V16.8133H276.397V23.1597H274.884ZM281.043 23.1597V15.4544H282.43V19.4472C282.43 19.7087 282.421 19.9982 282.402 20.3158C282.383 20.624 282.36 20.9275 282.332 21.2264C282.304 21.5159 282.276 21.7681 282.248 21.9829L285.148 15.4544H287.039V23.1597H285.652V19.167C285.652 18.9055 285.661 18.6253 285.68 18.3264C285.699 18.0182 285.722 17.7193 285.75 17.4298C285.778 17.1402 285.806 16.9021 285.834 16.7153L282.934 23.1597H281.043ZM289.429 23.1597V15.4544H292.82C293.66 15.4544 294.319 15.6365 294.795 16.0008C295.271 16.365 295.509 16.8694 295.509 17.5138C295.509 18.0462 295.318 18.4712 294.935 18.7887C294.552 19.1063 294.048 19.265 293.422 19.265V19.1389C294.104 19.1389 294.65 19.3071 295.061 19.6433C295.481 19.9702 295.692 20.4092 295.692 20.9602C295.692 21.6514 295.444 22.1931 294.949 22.5853C294.454 22.9683 293.772 23.1597 292.904 23.1597H289.429ZM290.914 21.9409H292.876C293.287 21.9409 293.609 21.8475 293.842 21.6607C294.085 21.4739 294.207 21.2171 294.207 20.8902C294.207 20.5539 294.085 20.2924 293.842 20.1056C293.609 19.9095 293.287 19.8114 292.876 19.8114H290.914V21.9409ZM290.914 18.6906H292.82C293.193 18.6906 293.487 18.6019 293.702 18.4245C293.917 18.247 294.024 17.9995 294.024 17.6819C294.024 17.3737 293.917 17.1309 293.702 16.9534C293.487 16.7666 293.193 16.6732 292.82 16.6732H290.914V18.6906ZM297.844 23.1597V15.4544H299.357V18.5505H302.327V15.4544H303.84V23.1597H302.327V19.9375H299.357V23.1597H297.844ZM309.242 23.2858C308.607 23.2858 308.056 23.1644 307.589 22.9216C307.122 22.6787 306.762 22.3332 306.51 21.8848C306.258 21.4365 306.132 20.9088 306.132 20.3018V18.3124C306.132 17.6959 306.258 17.1683 306.51 16.7293C306.762 16.281 307.122 15.9354 307.589 15.6926C308.056 15.4497 308.607 15.3283 309.242 15.3283C309.877 15.3283 310.428 15.4497 310.895 15.6926C311.362 15.9354 311.722 16.281 311.974 16.7293C312.226 17.1683 312.352 17.6959 312.352 18.3124V20.3018C312.352 20.9088 312.226 21.4365 311.974 21.8848C311.722 22.3332 311.362 22.6787 310.895 22.9216C310.428 23.1644 309.877 23.2858 309.242 23.2858ZM309.242 21.9549C309.756 21.9549 310.153 21.8148 310.433 21.5346C310.713 21.2451 310.853 20.8341 310.853 20.3018V18.3124C310.853 17.7707 310.713 17.3597 310.433 17.0795C310.153 16.7993 309.756 16.6592 309.242 16.6592C308.738 16.6592 308.341 16.7993 308.051 17.0795C307.771 17.3597 307.631 17.7707 307.631 18.3124V20.3018C307.631 20.8341 307.771 21.2451 308.051 21.5346C308.341 21.8148 308.738 21.9549 309.242 21.9549ZM315.205 23.1597V15.4544H320.837V16.8414H316.704V23.1597H315.205ZM326.043 23.2858C325.408 23.2858 324.857 23.1644 324.39 22.9216C323.923 22.6787 323.563 22.3332 323.311 21.8848C323.059 21.4365 322.933 20.9088 322.933 20.3018V18.3124C322.933 17.6959 323.059 17.1683 323.311 16.7293C323.563 16.281 323.923 15.9354 324.39 15.6926C324.857 15.4497 325.408 15.3283 326.043 15.3283C326.678 15.3283 327.229 15.4497 327.696 15.6926C328.163 15.9354 328.522 16.281 328.775 16.7293C329.027 17.1683 329.153 17.6959 329.153 18.3124V20.3018C329.153 20.9088 329.027 21.4365 328.775 21.8848C328.522 22.3332 328.163 22.6787 327.696 22.9216C327.229 23.1644 326.678 23.2858 326.043 23.2858ZM326.043 21.9549C326.556 21.9549 326.953 21.8148 327.234 21.5346C327.514 21.2451 327.654 20.8341 327.654 20.3018V18.3124C327.654 17.7707 327.514 17.3597 327.234 17.0795C326.953 16.7993 326.556 16.6592 326.043 16.6592C325.538 16.6592 325.141 16.7993 324.852 17.0795C324.572 17.3597 324.432 17.7707 324.432 18.3124V20.3018C324.432 20.8341 324.572 21.2451 324.852 21.5346C325.141 21.8148 325.538 21.9549 326.043 21.9549ZM155.038 38.1597V30.4544H161.034V38.1597H159.521V31.8414H156.551V38.1597H155.038ZM163.41 40.6815V30.4544H164.909V31.9254H165.231L164.909 32.2757C164.909 31.6686 165.096 31.1922 165.47 30.8467C165.853 30.4918 166.362 30.3143 166.997 30.3143C167.772 30.3143 168.388 30.5758 168.846 31.0988C169.313 31.6125 169.546 32.3177 169.546 33.2143V35.3858C169.546 35.9836 169.439 36.5019 169.224 36.9409C169.019 37.3705 168.725 37.7067 168.342 37.9496C167.968 38.1831 167.52 38.2998 166.997 38.2998C166.371 38.2998 165.867 38.127 165.484 37.7815C165.101 37.4266 164.909 36.9456 164.909 36.3385L165.231 36.6887H164.881L164.923 38.482V40.6815H163.41ZM166.478 36.9829C166.973 36.9829 167.356 36.8428 167.627 36.5626C167.907 36.2731 168.047 35.8575 168.047 35.3158V33.2984C168.047 32.7567 167.907 32.3457 167.627 32.0655C167.356 31.776 166.973 31.6312 166.478 31.6312C166.002 31.6312 165.624 31.7807 165.344 32.0795C165.063 32.3691 164.923 32.7753 164.923 33.2984V35.3158C164.923 35.8388 165.063 36.2497 165.344 36.5486C165.624 36.8381 166.002 36.9829 166.478 36.9829ZM174.837 38.2858C174.201 38.2858 173.65 38.1644 173.183 37.9216C172.716 37.6787 172.357 37.3332 172.105 36.8848C171.853 36.4365 171.726 35.9088 171.726 35.3018V33.3124C171.726 32.6959 171.853 32.1683 172.105 31.7293C172.357 31.281 172.716 30.9354 173.183 30.6926C173.65 30.4497 174.201 30.3283 174.837 30.3283C175.472 30.3283 176.023 30.4497 176.49 30.6926C176.957 30.9354 177.316 31.281 177.568 31.7293C177.821 32.1683 177.947 32.6959 177.947 33.3124V35.3018C177.947 35.9088 177.821 36.4365 177.568 36.8848C177.316 37.3332 176.957 37.6787 176.49 37.9216C176.023 38.1644 175.472 38.2858 174.837 38.2858ZM174.837 36.9549C175.35 36.9549 175.747 36.8148 176.027 36.5346C176.308 36.2451 176.448 35.8341 176.448 35.3018V33.3124C176.448 32.7707 176.308 32.3597 176.027 32.0795C175.747 31.7993 175.35 31.6592 174.837 31.6592C174.332 31.6592 173.935 31.7993 173.646 32.0795C173.366 32.3597 173.225 32.7707 173.225 33.3124V35.3018C173.225 35.8341 173.366 36.2451 173.646 36.5346C173.935 36.8148 174.332 36.9549 174.837 36.9549ZM180.799 38.1597V30.4544H186.431V31.8414H182.298V38.1597H180.799ZM188.611 40.6815V30.4544H190.11V31.9254H190.432L190.11 32.2757C190.11 31.6686 190.297 31.1922 190.671 30.8467C191.054 30.4918 191.563 30.3143 192.198 30.3143C192.973 30.3143 193.589 30.5758 194.047 31.0988C194.514 31.6125 194.747 32.3177 194.747 33.2143V35.3858C194.747 35.9836 194.64 36.5019 194.425 36.9409C194.22 37.3705 193.926 37.7067 193.543 37.9496C193.169 38.1831 192.721 38.2998 192.198 38.2998C191.572 38.2998 191.068 38.127 190.685 37.7815C190.302 37.4266 190.11 36.9456 190.11 36.3385L190.432 36.6887H190.082L190.124 38.482V40.6815H188.611ZM191.679 36.9829C192.174 36.9829 192.557 36.8428 192.828 36.5626C193.108 36.2731 193.248 35.8575 193.248 35.3158V33.2984C193.248 32.7567 193.108 32.3457 192.828 32.0655C192.557 31.776 192.174 31.6312 191.679 31.6312C191.203 31.6312 190.825 31.7807 190.545 32.0795C190.264 32.3691 190.124 32.7753 190.124 33.2984V35.3158C190.124 35.8388 190.264 36.2497 190.545 36.5486C190.825 36.8381 191.203 36.9829 191.679 36.9829ZM199.267 38.2998C198.464 38.2998 197.829 38.0944 197.362 37.6834C196.904 37.2631 196.675 36.6934 196.675 35.9742C196.675 35.2457 196.918 34.676 197.404 34.265C197.899 33.8447 198.576 33.6346 199.435 33.6346H201.579V32.9201C201.579 32.4998 201.448 32.1729 201.186 31.9394C200.925 31.7059 200.556 31.5892 200.08 31.5892C199.659 31.5892 199.309 31.6826 199.029 31.8694C198.749 32.0468 198.585 32.285 198.539 32.5839H197.054C197.138 31.8927 197.455 31.3417 198.006 30.9307C198.567 30.5198 199.272 30.3143 200.122 30.3143C201.037 30.3143 201.761 30.5478 202.293 31.0148C202.826 31.4724 203.092 32.0982 203.092 32.8921V38.1597H201.621V36.7448H201.369L201.621 36.4646C201.621 37.0249 201.406 37.4733 200.976 37.8095C200.547 38.1364 199.977 38.2998 199.267 38.2998ZM199.715 37.137C200.257 37.137 200.701 37.0016 201.046 36.7307C201.401 36.4505 201.579 36.0956 201.579 35.666V34.6573H199.463C199.071 34.6573 198.758 34.7647 198.525 34.9795C198.3 35.1943 198.188 35.4885 198.188 35.8621C198.188 36.2544 198.324 36.5673 198.595 36.8008C198.865 37.0249 199.239 37.137 199.715 37.137ZM205.16 38.1597V30.4544H207.065L208.046 33.3824C208.148 33.6906 208.237 33.9895 208.312 34.279C208.387 34.5592 208.438 34.7741 208.466 34.9235C208.503 34.7741 208.555 34.5592 208.62 34.279C208.695 33.9895 208.779 33.6906 208.872 33.3824L209.811 30.4544H211.716V38.1597H210.287V36.9129C210.287 36.5206 210.292 36.0956 210.301 35.638C210.32 35.171 210.334 34.6993 210.343 34.223C210.362 33.7467 210.381 33.2937 210.399 32.8641C210.418 32.4251 210.437 32.0375 210.455 31.7013L209.18 35.8902H207.723L206.421 31.7293C206.449 32.1402 206.472 32.6446 206.491 33.2423C206.519 33.8401 206.542 34.4612 206.561 35.1056C206.579 35.7407 206.589 36.3431 206.589 36.9129V38.1597H205.16ZM213.56 38.1597V30.4544H215.465L216.446 33.3824C216.549 33.6906 216.637 33.9895 216.712 34.279C216.787 34.5592 216.838 34.7741 216.866 34.9235C216.904 34.7741 216.955 34.5592 217.02 34.279C217.095 33.9895 217.179 33.6906 217.273 33.3824L218.211 30.4544H220.117V38.1597H218.688V36.9129C218.688 36.5206 218.692 36.0956 218.702 35.638C218.72 35.171 218.734 34.6993 218.744 34.223C218.762 33.7467 218.781 33.2937 218.8 32.8641C218.818 32.4251 218.837 32.0375 218.856 31.7013L217.581 35.8902H216.124L214.821 31.7293C214.849 32.1402 214.872 32.6446 214.891 33.2423C214.919 33.8401 214.942 34.4612 214.961 35.1056C214.98 35.7407 214.989 36.3431 214.989 36.9129V38.1597H213.56ZM222.241 38.1597V30.4544H223.628V34.4472C223.628 34.7087 223.618 34.9982 223.6 35.3158C223.581 35.624 223.557 35.9275 223.529 36.2264C223.501 36.5159 223.473 36.7681 223.445 36.9829L226.345 30.4544H228.237V38.1597H226.85V34.167C226.85 33.9055 226.859 33.6253 226.878 33.3264C226.896 33.0182 226.92 32.7193 226.948 32.4298C226.976 32.1402 227.004 31.9021 227.032 31.7153L224.132 38.1597H222.241ZM230.613 40.6815V30.4544H232.112V31.9254H232.434L232.112 32.2757C232.112 31.6686 232.299 31.1922 232.672 30.8467C233.055 30.4918 233.564 30.3143 234.199 30.3143C234.975 30.3143 235.591 30.5758 236.049 31.0988C236.516 31.6125 236.749 32.3177 236.749 33.2143V35.3858C236.749 35.9836 236.642 36.5019 236.427 36.9409C236.221 37.3705 235.927 37.7067 235.544 37.9496C235.171 38.1831 234.722 38.2998 234.199 38.2998C233.574 38.2998 233.069 38.127 232.686 37.7815C232.303 37.4266 232.112 36.9456 232.112 36.3385L232.434 36.6887H232.084L232.126 38.482V40.6815H230.613ZM233.681 36.9829C234.176 36.9829 234.559 36.8428 234.83 36.5626C235.11 36.2731 235.25 35.8575 235.25 35.3158V33.2984C235.25 32.7567 235.11 32.3457 234.83 32.0655C234.559 31.776 234.176 31.6312 233.681 31.6312C233.205 31.6312 232.826 31.7807 232.546 32.0795C232.266 32.3691 232.126 32.7753 232.126 33.2984V35.3158C232.126 35.8388 232.266 36.2497 232.546 36.5486C232.826 36.8381 233.205 36.9829 233.681 36.9829ZM242.039 38.2858C241.404 38.2858 240.853 38.1644 240.386 37.9216C239.919 37.6787 239.56 37.3332 239.307 36.8848C239.055 36.4365 238.929 35.9088 238.929 35.3018V33.3124C238.929 32.6959 239.055 32.1683 239.307 31.7293C239.56 31.281 239.919 30.9354 240.386 30.6926C240.853 30.4497 241.404 30.3283 242.039 30.3283C242.674 30.3283 243.225 30.4497 243.692 30.6926C244.159 30.9354 244.519 31.281 244.771 31.7293C245.023 32.1683 245.149 32.6959 245.149 33.3124V35.3018C245.149 35.9088 245.023 36.4365 244.771 36.8848C244.519 37.3332 244.159 37.6787 243.692 37.9216C243.225 38.1644 242.674 38.2858 242.039 38.2858ZM242.039 36.9549C242.553 36.9549 242.95 36.8148 243.23 36.5346C243.51 36.2451 243.65 35.8341 243.65 35.3018V33.3124C243.65 32.7707 243.51 32.3597 243.23 32.0795C242.95 31.7993 242.553 31.6592 242.039 31.6592C241.535 31.6592 241.138 31.7993 240.849 32.0795C240.568 32.3597 240.428 32.7707 240.428 33.3124V35.3018C240.428 35.8341 240.568 36.2451 240.849 36.5346C241.138 36.8148 241.535 36.9549 242.039 36.9549ZM247.428 38.1597V30.4544H250.818C251.659 30.4544 252.317 30.6365 252.793 31.0008C253.27 31.365 253.508 31.8694 253.508 32.5138C253.508 33.0462 253.316 33.4712 252.933 33.7887C252.55 34.1063 252.046 34.265 251.42 34.265V34.1389C252.102 34.1389 252.649 34.3071 253.059 34.6433C253.48 34.9702 253.69 35.4092 253.69 35.9602C253.69 36.6514 253.442 37.1931 252.947 37.5853C252.452 37.9683 251.771 38.1597 250.902 38.1597H247.428ZM248.913 36.9409H250.874C251.285 36.9409 251.607 36.8475 251.841 36.6607C252.083 36.4739 252.205 36.2171 252.205 35.8902C252.205 35.5539 252.083 35.2924 251.841 35.1056C251.607 34.9095 251.285 34.8114 250.874 34.8114H248.913V36.9409ZM248.913 33.6906H250.818C251.192 33.6906 251.486 33.6019 251.701 33.4245C251.915 33.247 252.023 32.9995 252.023 32.6819C252.023 32.3737 251.915 32.1309 251.701 31.9534C251.486 31.7666 251.192 31.6732 250.818 31.6732H248.913V33.6906ZM258.069 38.2998C257.266 38.2998 256.631 38.0944 256.164 37.6834C255.707 37.2631 255.478 36.6934 255.478 35.9742C255.478 35.2457 255.721 34.676 256.206 34.265C256.701 33.8447 257.378 33.6346 258.238 33.6346H260.381V32.9201C260.381 32.4998 260.25 32.1729 259.989 31.9394C259.727 31.7059 259.358 31.5892 258.882 31.5892C258.462 31.5892 258.112 31.6826 257.831 31.8694C257.551 32.0468 257.388 32.285 257.341 32.5839H255.856C255.94 31.8927 256.258 31.3417 256.809 30.9307C257.369 30.5198 258.074 30.3143 258.924 30.3143C259.839 30.3143 260.563 30.5478 261.096 31.0148C261.628 31.4724 261.894 32.0982 261.894 32.8921V38.1597H260.423V36.7448H260.171L260.423 36.4646C260.423 37.0249 260.208 37.4733 259.779 37.8095C259.349 38.1364 258.779 38.2998 258.069 38.2998ZM258.518 37.137C259.059 37.137 259.503 37.0016 259.849 36.7307C260.204 36.4505 260.381 36.0956 260.381 35.666V34.6573H258.266C257.873 34.6573 257.56 34.7647 257.327 34.9795C257.103 35.1943 256.991 35.4885 256.991 35.8621C256.991 36.2544 257.126 36.5673 257.397 36.8008C257.668 37.0249 258.041 37.137 258.518 37.137ZM264.242 38.1597V30.4544H265.755V33.5505H268.725V30.4544H270.238V38.1597H268.725V34.9375H265.755V38.1597H264.242ZM272.643 38.1597V30.4544H274.03V34.4472C274.03 34.7087 274.02 34.9982 274.002 35.3158C273.983 35.624 273.96 35.9275 273.932 36.2264C273.903 36.5159 273.875 36.7681 273.847 36.9829L276.747 30.4544H278.639V38.1597H277.252V34.167C277.252 33.9055 277.261 33.6253 277.28 33.3264C277.299 33.0182 277.322 32.7193 277.35 32.4298C277.378 32.1402 277.406 31.9021 277.434 31.7153L274.534 38.1597H272.643ZM280.637 38.1597L282.528 35.2737C281.968 35.115 281.529 34.8348 281.211 34.4332C280.903 34.0315 280.749 33.5412 280.749 32.9621C280.749 32.1776 281.01 31.5658 281.533 31.1269C282.056 30.6786 282.771 30.4544 283.677 30.4544H287.039V38.1597H285.54V35.4138H284.069L282.374 38.1597H280.637ZM283.719 34.153H285.54V31.7433H283.719C283.27 31.7433 282.916 31.8507 282.654 32.0655C282.402 32.271 282.276 32.5652 282.276 32.9481C282.276 33.3311 282.402 33.6299 282.654 33.8447C282.916 34.0502 283.27 34.153 283.719 34.153ZM297.816 38.1597V27.9327H301.164C301.827 27.9327 302.401 28.0587 302.887 28.3109C303.382 28.5631 303.76 28.9227 304.022 29.3897C304.293 29.8473 304.428 30.389 304.428 31.0148C304.428 31.6312 304.293 32.1729 304.022 32.6399C303.751 33.1069 303.373 33.4665 302.887 33.7187C302.401 33.9708 301.827 34.0969 301.164 34.0969H299.329V38.1597H297.816ZM299.329 32.738H301.164C301.687 32.738 302.103 32.5839 302.411 32.2757C302.728 31.9581 302.887 31.5378 302.887 31.0148C302.887 30.4824 302.728 30.0621 302.411 29.7539C302.103 29.4457 301.687 29.2916 301.164 29.2916H299.329V32.738ZM309.242 38.2858C308.607 38.2858 308.056 38.1644 307.589 37.9216C307.122 37.6787 306.762 37.3332 306.51 36.8848C306.258 36.4365 306.132 35.9088 306.132 35.3018V33.3124C306.132 32.6959 306.258 32.1683 306.51 31.7293C306.762 31.281 307.122 30.9354 307.589 30.6926C308.056 30.4497 308.607 30.3283 309.242 30.3283C309.877 30.3283 310.428 30.4497 310.895 30.6926C311.362 30.9354 311.722 31.281 311.974 31.7293C312.226 32.1683 312.352 32.6959 312.352 33.3124V35.3018C312.352 35.9088 312.226 36.4365 311.974 36.8848C311.722 37.3332 311.362 37.6787 310.895 37.9216C310.428 38.1644 309.877 38.2858 309.242 38.2858ZM309.242 36.9549C309.756 36.9549 310.153 36.8148 310.433 36.5346C310.713 36.2451 310.853 35.8341 310.853 35.3018V33.3124C310.853 32.7707 310.713 32.3597 310.433 32.0795C310.153 31.7993 309.756 31.6592 309.242 31.6592C308.738 31.6592 308.341 31.7993 308.051 32.0795C307.771 32.3597 307.631 32.7707 307.631 33.3124V35.3018C307.631 35.8341 307.771 36.2451 308.051 36.5346C308.341 36.8148 308.738 36.9549 309.242 36.9549ZM317.684 38.2998C317.049 38.2998 316.489 38.1831 316.003 37.9496C315.527 37.7067 315.158 37.3612 314.896 36.9129C314.644 36.4552 314.518 35.9228 314.518 35.3158V33.2984C314.518 32.6819 314.644 32.1496 314.896 31.7013C315.158 31.253 315.527 30.912 316.003 30.6786C316.489 30.4357 317.049 30.3143 317.684 30.3143C318.609 30.3143 319.352 30.5571 319.912 31.0428C320.472 31.5285 320.767 32.1916 320.795 33.0322H319.282C319.254 32.5932 319.099 32.2523 318.819 32.0095C318.539 31.7666 318.161 31.6452 317.684 31.6452C317.171 31.6452 316.764 31.79 316.466 32.0795C316.167 32.3597 316.017 32.7613 316.017 33.2844V35.3158C316.017 35.8388 316.167 36.2451 316.466 36.5346C316.764 36.8241 317.171 36.9689 317.684 36.9689C318.161 36.9689 318.539 36.8475 318.819 36.6047C319.099 36.3618 319.254 36.0209 319.282 35.5819H320.795C320.767 36.4225 320.472 37.0857 319.912 37.5713C319.352 38.057 318.609 38.2998 317.684 38.2998ZM326.085 38.2998C325.45 38.2998 324.889 38.1831 324.404 37.9496C323.927 37.7067 323.558 37.3612 323.297 36.9129C323.045 36.4552 322.919 35.9228 322.919 35.3158V33.2984C322.919 32.6819 323.045 32.1496 323.297 31.7013C323.558 31.253 323.927 30.912 324.404 30.6786C324.889 30.4357 325.45 30.3143 326.085 30.3143C327.009 30.3143 327.752 30.5571 328.312 31.0428C328.873 31.5285 329.167 32.1916 329.195 33.0322H327.682C327.654 32.5932 327.5 32.2523 327.22 32.0095C326.939 31.7666 326.561 31.6452 326.085 31.6452C325.571 31.6452 325.165 31.79 324.866 32.0795C324.567 32.3597 324.418 32.7613 324.418 33.2844V35.3158C324.418 35.8388 324.567 36.2451 324.866 36.5346C325.165 36.8241 325.571 36.9689 326.085 36.9689C326.561 36.9689 326.939 36.8475 327.22 36.6047C327.5 36.3618 327.654 36.0209 327.682 35.5819H329.195C329.167 36.4225 328.873 37.0857 328.312 37.5713C327.752 38.057 327.009 38.2998 326.085 38.2998ZM331.445 38.1597V30.4544H332.832V34.4472C332.832 34.7087 332.823 34.9982 332.804 35.3158C332.785 35.624 332.762 35.9275 332.734 36.2264C332.706 36.5159 332.678 36.7681 332.65 36.9829L335.55 30.4544H337.441V38.1597H336.054V34.167C336.054 33.9055 336.064 33.6253 336.082 33.3264C336.101 33.0182 336.124 32.7193 336.152 32.4298C336.18 32.1402 336.208 31.9021 336.236 31.7153L333.336 38.1597H331.445ZM339.845 38.1597V30.4544H341.232V34.4472C341.232 34.7087 341.223 34.9982 341.204 35.3158C341.186 35.624 341.162 35.9275 341.134 36.2264C341.106 36.5159 341.078 36.7681 341.05 36.9829L343.95 30.4544H345.841V38.1597H344.455V34.167C344.455 33.9055 344.464 33.6253 344.483 33.3264C344.501 33.0182 344.525 32.7193 344.553 32.4298C344.581 32.1402 344.609 31.9021 344.637 31.7153L341.737 38.1597H339.845Z" fill="#EDEDED"/>
</svg>
